<svg width="30" height="29" viewBox="0 0 30 29" fill="none" xmlns="http://www.w3.org/2000/svg">
<path d="M14.4629 28.9935C12.0747 28.9935 9.68527 29.0082 7.29587 28.9935C3.20137 28.963 0.0328233 25.808 0.014756 21.7157C-0.0055697 16.8978 -0.0055697 12.0821 0.014756 7.2687C0.0339525 3.21146 3.20701 0.0350054 7.26199 0.0169381C12.0799 -0.00564603 16.8956 -0.00564603 21.7091 0.0169381C25.8036 0.0338762 28.9721 3.2013 28.9902 7.29241C29.0105 12.1103 29.0105 16.926 28.9902 21.7395C28.971 25.7967 25.7979 28.9664 21.7429 28.9935C19.3163 29.0082 16.8896 28.9935 14.4629 28.9935ZM14.5149 27.0106H21.4561C24.7749 26.979 26.9892 24.7906 27.0061 21.4865C27.0227 16.8191 27.0227 12.1544 27.0061 7.49228C26.9937 4.22323 24.7692 2.01112 21.4877 1.9987C16.8422 1.98214 12.1962 1.98214 7.54994 1.9987C4.20975 2.00886 2.00894 4.22097 1.99878 7.57471C1.98523 12.1834 1.98523 16.7917 1.99878 21.3996C2.00781 24.8132 4.20523 26.9937 7.63237 27.0095C9.92917 27.0185 12.2204 27.0095 14.5149 27.0106Z" fill="#ACB5BC"/>
<path d="M5.55039 14.727C5.55039 13.0174 5.56168 11.3066 5.54248 9.59699C5.54248 9.11708 5.68591 8.91947 6.18728 8.93528C7.81785 8.99964 9.46196 8.82236 11.0835 9.0482C12.8112 9.28646 13.8715 10.5568 13.7518 12.2326C13.7285 12.6002 13.6225 12.9578 13.4418 13.2788C13.2612 13.5998 13.0105 13.876 12.7084 14.0867C12.399 14.3126 12.4623 14.4108 12.7581 14.5802C14.0161 15.2995 14.5253 16.3045 14.2871 17.7363C14.0691 19.0496 13.3351 19.9597 12.0027 20.3154C11.5513 20.4459 11.0847 20.5157 10.6149 20.5232C9.12998 20.5232 7.64506 20.5141 6.16015 20.5379C5.68927 20.5458 5.53909 20.3719 5.54361 19.9145C5.56055 18.1857 5.55039 16.4569 5.55039 14.727ZM9.40212 15.2916C8.71105 15.2916 8.18595 15.2916 7.66087 15.2916C7.37292 15.2916 7.19678 15.3864 7.19791 15.7116C7.19791 16.7053 7.19791 17.7002 7.19791 18.6939C7.19791 18.9389 7.28372 19.0947 7.5536 19.0868C8.75169 19.0552 9.95543 19.1997 11.1467 18.9739C11.5597 18.9118 11.9373 18.7055 12.2126 18.3915C12.488 18.0775 12.6432 17.6762 12.6508 17.2586C12.6904 16.3553 12.1506 15.636 11.2506 15.4045C10.5889 15.2362 9.90801 15.3277 9.40212 15.2916ZM8.83074 13.7841V13.7728C9.24403 13.7728 9.65619 13.7841 10.0729 13.7728C10.3349 13.7568 10.5958 13.7255 10.8543 13.6791C11.6266 13.5582 12.0964 13.0388 12.1303 12.2743C12.1822 11.1643 11.6481 10.5455 10.511 10.4891C9.57487 10.4428 8.63538 10.4755 7.69814 10.4574C7.33906 10.4507 7.19114 10.5873 7.19791 10.9532C7.21372 11.7414 7.21372 12.5292 7.19791 13.3166C7.18888 13.6983 7.36278 13.8078 7.71058 13.792C8.07983 13.7717 8.46036 13.7852 8.83074 13.7852V13.7841Z" fill="#ACB5BC"/>
<path d="M20.3184 16.7822C19.4534 16.7822 18.5873 16.7912 17.7212 16.7822C17.3621 16.7822 17.2786 16.9019 17.3283 17.2565C17.5225 18.6318 18.523 19.5047 19.8791 19.4404C20.7204 19.3997 21.2647 18.9345 21.6396 18.2174C21.8394 17.8357 22.9506 17.6754 23.2453 17.9792C23.4169 18.1564 23.2826 18.3382 23.225 18.5042C22.7846 19.7825 21.5459 20.6497 20.0474 20.7378C17.2989 20.8959 15.5949 19.2032 15.6616 16.2503C15.6864 15.2036 15.8795 14.1895 16.5649 13.3415C17.5722 12.0994 18.9035 11.7471 20.411 12.0158C21.8654 12.2755 22.7643 13.2071 23.2069 14.587C23.3556 15.0927 23.4399 15.6152 23.4576 16.1419C23.4869 16.6456 23.2758 16.8059 22.797 16.7912C21.9715 16.7596 21.1438 16.7811 20.3184 16.7822ZM19.572 15.4802C20.1524 15.4802 20.7328 15.4689 21.3132 15.4802C21.7096 15.4915 21.8518 15.3763 21.7446 14.9495C21.4803 13.8937 20.6696 13.2196 19.6104 13.2297C19.1006 13.2303 18.6059 13.4029 18.2063 13.7194C17.8067 14.036 17.5256 14.4782 17.4084 14.9743C17.3181 15.3605 17.4592 15.4881 17.8296 15.4802C18.4066 15.4712 18.9882 15.4802 19.5686 15.4802H19.572Z" fill="#ACB5BC"/>
<path d="M19.5351 11.2602C18.8983 11.2602 18.2602 11.2444 17.6234 11.2658C17.1717 11.2817 17.087 11.031 17.1028 10.664C17.1175 10.3252 17.0836 9.96162 17.5974 9.96388C18.9095 9.96388 20.2206 9.96388 21.5327 9.96388C22.0646 9.96388 21.9697 10.3591 21.9844 10.6854C22.0013 11.031 21.9234 11.2715 21.4999 11.2613C20.8473 11.2478 20.1912 11.2591 19.5351 11.2602Z" fill="#ACB5BC"/>
</svg>
