<svg width="76" height="16" viewBox="0 0 76 16" fill="none" xmlns="http://www.w3.org/2000/svg">
<path d="M75.4154 8.51016L68.1786 15.747C67.9187 16.0506 67.4618 16.086 67.1582 15.8259C66.8547 15.566 66.8193 15.1091 67.0793 14.8056C67.1036 14.7773 67.1299 14.7508 67.1582 14.7266L73.1576 8.72005L11.7316 8.72005L0.723174 8.72005C0.32353 8.72005 -0.000488281 8.39604 -0.000488281 7.99633C-0.000488281 7.59662 0.32353 7.27267 0.723174 7.27267L73.1576 7.27267L67.1582 1.27335C66.8547 1.01339 66.8193 0.55653 67.0793 0.252973C67.3393 -0.0505848 67.7961 -0.0859718 68.0997 0.174052C68.128 0.198307 68.1544 0.224675 68.1786 0.252973L75.4155 7.48984C75.696 7.77201 75.696 8.22787 75.4154 8.51016Z" fill="white"/>
</svg>
