<svg width="29" height="29" viewBox="0 0 29 29" fill="none" xmlns="http://www.w3.org/2000/svg">
<path d="M14.4895 28.9982C6.58193 29.128 -0.0787782 22.4276 0.000207074 14.4683C0.0791923 6.41642 6.44428 0.0647988 14.5098 0.000447144C22.4196 -0.0627755 29.0781 6.58689 28.9991 14.545C28.919 22.5969 22.555 29.0004 14.4895 28.9982ZM14.6147 26.7854C16.0266 26.7657 17.425 26.5081 18.7513 26.0233C19.1191 25.8901 19.2218 25.7117 19.1451 25.3087C18.5972 22.5238 17.829 19.7868 16.8478 17.1236C16.6842 16.672 16.5093 16.5964 16.0805 16.7849C14.4319 17.4734 12.8595 18.3319 11.3887 19.3466C9.79324 20.4665 8.40198 21.8089 7.38645 23.4978C6.96219 24.2023 6.98364 24.2508 7.65502 24.7013C9.70412 26.0798 11.9755 26.7628 14.6147 26.7854ZM2.23776 14.9492C2.26935 17.433 3.44059 20.497 5.03384 22.2988C5.22679 22.5167 5.33848 22.5958 5.52353 22.2909C7.63807 18.8193 10.7625 16.5591 14.3789 14.8781C14.8032 14.6805 15.4982 14.7539 15.6032 14.2662C15.6946 13.8383 15.2444 13.389 15.0548 12.9396C14.8934 12.5547 14.6667 12.4689 14.2571 12.5874C10.5707 13.6464 6.79521 14.0946 2.97345 14.1849C2.22873 14.203 2.22873 14.1962 2.23776 14.9492ZM3.71476 11.901C4.2575 11.8603 4.80027 11.8118 5.34414 11.7813C7.9874 11.6088 10.6098 11.1984 13.1795 10.5552C13.6522 10.4423 13.6523 10.282 13.4356 9.91285C12.2407 7.86489 10.9792 5.86209 9.59918 3.93606C9.30242 3.52398 9.05982 3.48447 8.63556 3.72268C5.82707 5.30325 3.89644 7.62103 2.85497 10.6681C2.36977 12.0895 2.48259 11.8671 3.71476 11.901ZM14.1758 2.22114C13.7504 2.20421 12.9549 2.33404 12.1572 2.46613C11.804 2.52258 11.7566 2.66031 11.9721 2.94368C13.4755 4.94174 14.8295 7.04812 16.0229 9.24563C16.1617 9.49965 16.3197 9.59787 16.6108 9.47142C18.7129 8.59195 20.6357 7.45395 22.1838 5.74016C22.4963 5.39356 22.4941 5.19373 22.1172 4.8923C19.9056 3.12093 17.3769 2.26517 14.1758 2.22114ZM26.748 13.7491C26.6013 11.6041 25.9762 9.58432 24.7587 7.75425C24.1133 6.78446 24.1122 6.77091 23.3144 7.59732C21.7076 9.2603 19.7804 10.4412 17.6918 11.3873C17.4661 11.4889 17.2156 11.5487 17.3849 11.9021C17.6602 12.479 17.9129 13.0661 18.1747 13.6498C18.2661 13.8564 18.4196 13.9015 18.6317 13.8756C21.1757 13.6308 23.7413 13.741 26.2549 14.203C26.6194 14.2809 26.8033 14.1838 26.748 13.7491ZM21.3646 15.7734C21.0013 15.7305 20.4258 15.8479 19.8469 15.8863C19.1327 15.9348 19.0864 15.9924 19.3177 16.6585C20.1701 19.0656 20.8393 21.5338 21.3194 24.042C21.4041 24.4936 21.5158 24.6065 21.9299 24.2836C24.2927 22.4264 25.8228 20.0488 26.4998 17.118C26.6002 16.6833 26.4998 16.4609 26.0405 16.3548C24.5081 15.9891 22.9399 15.7941 21.3646 15.7734Z" fill="#ACB5BC"/>
</svg>
