<svg width="29" height="29" viewBox="0 0 29 29" fill="none" xmlns="http://www.w3.org/2000/svg">
<path d="M14.4641 28.9589C12.0203 28.9589 9.57778 28.9713 7.13523 28.9589C3.24796 28.9292 0.0292234 25.7191 0.0118916 21.8356C-0.0046149 16.9307 -0.0046149 12.0258 0.0118916 7.12089C0.0255094 3.24229 3.2554 0.0247597 7.14514 0.0123799C12.05 -0.00412662 16.955 -0.00412662 21.8598 0.0123799C25.71 0.0272357 28.9399 3.2559 28.9547 7.10356C28.972 12.0266 28.972 16.9505 28.9547 21.8752C28.9399 25.713 25.7025 28.9317 21.8499 28.9565C19.3876 28.9713 16.9252 28.9589 14.4641 28.9589ZM14.4951 2.54406C12.1293 2.54406 9.75977 2.59853 7.39522 2.52921C4.73479 2.45245 2.48536 4.72416 2.52498 7.4143C2.5943 12.1269 2.5943 16.8416 2.52498 21.5583C2.48536 24.236 4.72737 26.4805 7.39894 26.4421C12.1132 26.3769 16.8283 26.3769 21.5442 26.4421C22.1903 26.4463 22.8309 26.3217 23.4285 26.0758C24.0261 25.8298 24.5687 25.4674 25.0247 25.0096C25.4808 24.5518 25.8412 24.0078 26.0849 23.4093C26.3286 22.8108 26.4507 22.1698 26.4441 21.5236C26.3674 16.8275 26.3674 12.1314 26.4441 7.43534C26.4874 4.72787 24.2355 2.44007 21.5392 2.52549C19.1932 2.60224 16.8435 2.54406 14.4951 2.54406Z" fill="#ACB5BC"/>
<path d="M21.7415 14.5017C21.7415 18.5524 18.5301 21.7452 14.4646 21.7415C10.3991 21.7377 7.2236 18.5301 7.22608 14.4646C7.22855 10.399 10.4362 7.22236 14.503 7.22608C18.5697 7.22979 21.7452 10.4374 21.7415 14.5017ZM19.2024 14.5017C19.2098 11.85 17.156 9.77013 14.5215 9.76023C11.8636 9.75033 9.78004 11.7955 9.76518 14.4274C9.75033 17.1101 11.8091 19.1949 14.4695 19.1974C15.0901 19.2066 15.7062 19.0919 16.2818 18.86C16.8575 18.6281 17.381 18.2836 17.8218 17.8467C18.2625 17.4098 18.6117 16.8894 18.8488 16.3159C19.0858 15.7423 19.2061 15.1273 19.2024 14.5067V14.5017Z" fill="#ACB5BC"/>
<path d="M22.3192 4.78862C23.3096 4.78862 24.1923 5.68616 24.1762 6.67407C24.1732 7.04397 24.0607 7.40469 23.8528 7.71064C23.6448 8.01658 23.3509 8.254 23.008 8.39289C22.6652 8.53179 22.2888 8.56591 21.9266 8.49096C21.5644 8.416 21.2325 8.23533 20.9729 7.97178C20.7133 7.70823 20.5378 7.37364 20.4683 7.0103C20.3989 6.64697 20.4387 6.2712 20.5828 5.9305C20.7269 5.58981 20.9688 5.29949 21.2778 5.09625C21.5869 4.893 21.9493 4.78594 22.3192 4.78862Z" fill="#ACB5BC"/>
</svg>
