<svg width="22" height="22" viewBox="0 0 22 22" fill="none" xmlns="http://www.w3.org/2000/svg">
<path fill-rule="evenodd" clip-rule="evenodd" d="M1.5 11C1.5 5.89421 5.64421 1.75 10.75 1.75C15.8558 1.75 20 5.89421 20 11C20 16.1058 15.8558 20.25 10.75 20.25C5.64421 20.25 1.5 16.1058 1.5 11ZM10.75 0.25C4.81579 0.25 0 5.06579 0 11C0 16.9342 4.81579 21.75 10.75 21.75C16.6842 21.75 21.5 16.9342 21.5 11C21.5 5.06579 16.6842 0.25 10.75 0.25ZM11.1289 6.50977C11.1289 6.09555 10.7931 5.75977 10.3789 5.75977C9.96469 5.75977 9.62891 6.09555 9.62891 6.50977V10.6098C9.62891 11.0862 9.79027 11.5637 10.0149 11.9576C10.2393 12.3511 10.5673 12.7322 10.9755 12.9744L10.9766 12.975L14.0746 14.8238C14.4303 15.0361 14.8907 14.9198 15.1029 14.5641C15.3152 14.2084 15.1989 13.748 14.8432 13.5357L11.7433 11.6857L11.7413 11.6845C11.6099 11.6067 11.4483 11.4431 11.3179 11.2145C11.1875 10.9859 11.1289 10.7633 11.1289 10.6098V6.50977Z" fill="#072430"/>
</svg>
