<svg width="22" height="20" viewBox="0 0 22 20" fill="none" xmlns="http://www.w3.org/2000/svg">
<path fill-rule="evenodd" clip-rule="evenodd" d="M1.5 6.5C1.5 4.89295 1.95538 3.86848 2.63534 3.2371C3.32535 2.59637 4.36497 2.25 5.75 2.25H15.75C17.135 2.25 18.1746 2.59637 18.8647 3.2371C19.5446 3.86848 20 4.89295 20 6.5V13.5C20 15.107 19.5446 16.1315 18.8647 16.7629C18.1746 17.4036 17.135 17.75 15.75 17.75H5.75C4.36497 17.75 3.32535 17.4036 2.63534 16.7629C1.95538 16.1315 1.5 15.107 1.5 13.5V6.5ZM5.75 0.75C4.13503 0.75 2.67465 1.15363 1.61466 2.1379C0.544615 3.13152 0 4.60705 0 6.5V13.5C0 15.393 0.544615 16.8685 1.61466 17.8621C2.67465 18.8464 4.13503 19.25 5.75 19.25H15.75C17.365 19.25 18.8254 18.8464 19.8853 17.8621C20.9554 16.8685 21.5 15.393 21.5 13.5V6.5C21.5 4.60705 20.9554 3.13152 19.8853 2.1379C18.8254 1.15363 17.365 0.75 15.75 0.75H5.75ZM16.2181 7.58602C16.5417 7.32751 16.5945 6.85558 16.336 6.53194C16.0775 6.20829 15.6056 6.15548 15.2819 6.41398L12.1529 8.91324L12.1525 8.91352C11.3961 9.51536 10.0946 9.51549 9.33799 8.91393L6.21898 6.41471C5.89574 6.1557 5.42373 6.20778 5.16471 6.53102C4.9057 6.85426 4.95778 7.32627 5.28102 7.58529L8.40101 10.0853L8.40286 10.0868C9.70626 11.1244 11.7837 11.1244 13.0871 10.0868L13.0881 10.086L16.2181 7.58602Z" fill="#C9CACD"/>
</svg>
