<svg width="34" height="16" viewBox="0 0 34 16" fill="none" xmlns="http://www.w3.org/2000/svg">
<path d="M33.4159 8.51016L26.1791 15.747C25.9191 16.0506 25.4623 16.086 25.1587 15.8259C24.8552 15.566 24.8198 15.1091 25.0798 14.8056C25.1041 14.7773 25.1304 14.7508 25.1587 14.7266L31.1581 8.72005L11.7321 8.72005L0.723662 8.72005C0.324019 8.72005 0 8.39604 0 7.99633C0 7.59662 0.324019 7.27267 0.723662 7.27267L31.1581 7.27267L25.1587 1.27335C24.8552 1.01339 24.8198 0.55653 25.0798 0.252973C25.3398 -0.0505848 25.7966 -0.0859718 26.1002 0.174052C26.1285 0.198307 26.1549 0.224675 26.1791 0.252973L33.416 7.48984C33.6965 7.77201 33.6965 8.22787 33.4159 8.51016Z" fill="white"/>
</svg>
